<?xml version="1.0" encoding="utf-8"?>
<!-- Generator: Adobe Illustrator 25.3.1, SVG Export Plug-In . SVG Version: 6.00 Build 0)  -->
<svg version="1.1" id="Capa_1" xmlns="http://www.w3.org/2000/svg" xmlns:xlink="http://www.w3.org/1999/xlink" x="0px" y="0px"
	 viewBox="0 0 32 32" style="enable-background:new 0 0 32 32;" xml:space="preserve">
<style type="text/css">
	.st0{fill:#539E43;stroke:#FFFFFF;stroke-width:6.107431e-02;stroke-miterlimit:10;}
</style>
<g id="_x32_33-node-js">
	<g>
		<path class="st0" d="M15.9,30.2c-0.4,0-0.8-0.1-1.1-0.3l-3.4-2c-0.5-0.3-0.3-0.4-0.1-0.4c0.7-0.2,0.8-0.3,1.6-0.7
			c0.1,0,0.2,0,0.3,0l2.6,1.6c0.1,0.1,0.2,0.1,0.3,0l10.3-5.9c0.1-0.1,0.2-0.2,0.2-0.3V10.2c0-0.1-0.1-0.2-0.2-0.3L16,4
			c-0.1-0.1-0.2-0.1-0.3,0L5.4,9.9c-0.1,0.1-0.2,0.2-0.2,0.3v11.9c0,0.1,0.1,0.2,0.2,0.3L8.2,24c1.5,0.8,2.5-0.1,2.5-1V11.2
			c0-0.2,0.1-0.3,0.3-0.3h1.3c0.2,0,0.3,0.1,0.3,0.3v11.7c0,2-1.1,3.2-3,3.2c-0.6,0-1.1,0-2.4-0.6L4.5,24c-0.7-0.4-1.1-1.1-1.1-1.9
			V10.2c0-0.8,0.4-1.5,1.1-1.9l10.3-5.9c0.7-0.4,1.5-0.4,2.2,0l10.3,5.9c0.7,0.4,1.1,1.1,1.1,1.9v11.9c0,0.8-0.4,1.5-1.1,1.9
			l-10.3,5.9C16.6,30.1,16.2,30.2,15.9,30.2z M24.2,18.5c0-2.2-1.5-2.8-4.7-3.2c-3.2-0.4-3.5-0.6-3.5-1.4c0-0.6,0.3-1.4,2.6-1.4
			c2.1,0,2.9,0.5,3.2,1.9c0,0.1,0.2,0.2,0.3,0.2h1.3c0.1,0,0.2,0,0.2-0.1c0.1-0.1,0.1-0.1,0.1-0.2c-0.2-2.5-1.8-3.6-5.1-3.6
			c-2.9,0-4.7,1.2-4.7,3.3c0,2.3,1.7,2.9,4.6,3.2c3.4,0.3,3.6,0.8,3.6,1.5c0,1.1-0.9,1.6-3.1,1.6c-2.7,0-3.3-0.7-3.5-2
			c0-0.1-0.1-0.3-0.3-0.3h-1.3c-0.2,0-0.3,0.1-0.3,0.3c0,1.7,0.9,3.8,5.5,3.8C22.3,22,24.2,20.7,24.2,18.5L24.2,18.5z"/>
	</g>
</g>
<g id="Layer_1">
</g>
</svg>
