<?xml version="1.0" encoding="utf-8"?>
<!-- Generator: Adobe Illustrator 25.3.1, SVG Export Plug-In . SVG Version: 6.00 Build 0)  -->
<svg version="1.1" id="Capa_1" xmlns="http://www.w3.org/2000/svg" xmlns:xlink="http://www.w3.org/1999/xlink" x="0px" y="0px"
	 viewBox="0 0 101.3 113" style="enable-background:new 0 0 101.3 113;" xml:space="preserve">
<style type="text/css">
	.st0{fill:none;}
	.st1{fill:#549E42;}
</style>
<g>
	<g>
		<rect x="-3" y="9.4" class="st0" width="112.8" height="112.8"/>
		<path class="st1" d="M78.1,93.5H25.3L12.5,23.4c0-0.3-0.3-0.4-0.5-0.4H4.1v-6h8c3.2,0,5.8,2.3,6.4,5.4l11.8,65.1h47.8V93.5z"/>
		<path class="st1" d="M32.3,111.1c-6.5,0-11.8-5.3-11.8-11.8c0-6.5,5.3-11.8,11.8-11.8s11.8,5.3,11.8,11.8
			C44.1,105.8,38.8,111.1,32.3,111.1z M32.3,93.5c-3.2,0-5.8,2.6-5.8,5.8s2.6,5.8,5.8,5.8s5.8-2.6,5.8-5.8S35.5,93.5,32.3,93.5z"/>
		<path class="st1" d="M78.1,111.1c-6.5,0-11.8-5.3-11.8-11.8c0-6.5,5.3-11.8,11.8-11.8c6.5,0,11.8,5.3,11.8,11.8
			C89.9,105.8,84.6,111.1,78.1,111.1z M78.1,93.5c-3.2,0-5.8,2.6-5.8,5.8s2.6,5.8,5.8,5.8c3.2,0,5.8-2.6,5.8-5.8
			S81.3,93.5,78.1,93.5z"/>
		<path class="st1" d="M79.9,75.9C79.9,75.9,79.9,75.9,79.9,75.9H24.5v-6h55.4c0,0,0,0,0,0c2,0,3.6-1.4,4-3.3l5.4-29.5l5.9,1.1
			l-5.4,29.5C88.9,72.4,84.8,75.9,79.9,75.9z"/>
	</g>
	<g>
		<g id="_x32_33-node-js_1_">
			<g>
				<path class="st1" d="M55.2,71.8c-0.9,0-1.9-0.2-2.7-0.7l-8.5-5.1c-1.3-0.7-0.7-1-0.2-1.1c1.7-0.6,2.1-0.7,3.9-1.8
					c0.2-0.1,0.4-0.1,0.6,0.1l6.6,3.9c0.2,0.1,0.6,0.1,0.8,0l25.6-14.8c0.2-0.1,0.4-0.4,0.4-0.7V22.1c0-0.3-0.2-0.6-0.4-0.7
					L55.5,6.7c-0.2-0.1-0.6-0.1-0.8,0L29.2,21.4c-0.2,0.1-0.4,0.4-0.4,0.7v29.5c0,0.3,0.2,0.6,0.4,0.7l7,4c3.8,1.9,6.1-0.3,6.1-2.6
					V24.6c0-0.4,0.3-0.7,0.7-0.7h3.2c0.4,0,0.7,0.3,0.7,0.7v29.2c0,5.1-2.8,8-7.6,8c-1.5,0-2.6,0-5.9-1.6l-6.7-3.9
					c-1.7-1-2.7-2.7-2.7-4.7V22.1c0-1.9,1-3.7,2.7-4.7L52.5,2.7c1.6-0.9,3.8-0.9,5.4,0l25.6,14.8c1.7,1,2.7,2.7,2.7,4.7v29.5
					c0,1.9-1,3.7-2.7,4.7L57.8,71.1C57,71.6,56.1,71.8,55.2,71.8z M75.8,42.7c0-5.5-3.7-7-11.6-8c-8-1.1-8.8-1.6-8.8-3.5
					c0-1.5,0.7-3.6,6.6-3.6c5.3,0,7.2,1.1,8,4.7c0.1,0.3,0.4,0.6,0.7,0.6h3.3c0.2,0,0.4-0.1,0.5-0.2c0.1-0.2,0.2-0.4,0.2-0.6
					c-0.5-6.1-4.6-9-12.8-9c-7.3,0-11.7,3.1-11.7,8.2c0,5.6,4.3,7.2,11.3,7.8c8.4,0.8,9,2.1,9,3.7c0,2.9-2.3,4.1-7.7,4.1
					c-6.8,0-8.3-1.7-8.8-5.1c-0.1-0.4-0.4-0.6-0.7-0.6h-3.3c-0.4,0-0.7,0.3-0.7,0.7c0,4.3,2.3,9.5,13.6,9.5
					C71.2,51.5,75.8,48.3,75.8,42.7L75.8,42.7z"/>
			</g>
		</g>
	</g>
</g>
</svg>
